# Blender 4.0.1
# www.blender.org
mtllib Testroom.obj.mtl
g Cube_Cube.001
v -18.467535 -0.131151 15.024740
v -18.467535 0.131151 15.024740
v -18.467535 -0.131151 -15.024740
v -18.467535 0.131151 -15.024740
v 18.467535 -0.131151 15.024740
v 18.467535 0.131151 15.024740
v 18.467535 -0.131151 -15.024740
v 18.467535 0.131151 -15.024740
vn -1.0000 -0.0000 -0.0000
vn -0.0000 -0.0000 -1.0000
vn 1.0000 -0.0000 -0.0000
vn -0.0000 -0.0000 1.0000
vn -0.0000 -1.0000 -0.0000
vn -0.0000 1.0000 -0.0000
vt 0.375000 0.000000
vt 0.625000 0.000000
vt 0.625000 0.250000
vt 0.375000 0.250000
vt 0.625000 0.500000
vt 0.375000 0.500000
vt 0.625000 0.750000
vt 0.375000 0.750000
vt 0.625000 1.000000
vt 0.375000 1.000000
vt 0.125000 0.500000
vt 0.125000 0.750000
vt 0.875000 0.500000
vt 0.875000 0.750000
s 0
g Cube_Material.005
usemtl Material.005
f 1/1/1 2/2/1 4/3/1 3/4/1
f 3/4/2 4/3/2 8/5/2 7/6/2
f 7/6/3 8/5/3 6/7/3 5/8/3
f 5/8/4 6/7/4 2/9/4 1/10/4
f 3/11/5 7/6/5 5/8/5 1/12/5
f 8/5/6 4/13/6 2/14/6 6/7/6
g Plane_Plane.001
v -1.000000 0.000000 1.000000
v 1.000000 0.000000 1.000000
v -1.000000 0.000000 -1.000000
v 1.000000 0.000000 -1.000000
vn -0.0000 1.0000 -0.0000
vt 0.000000 0.000000
vt 1.000000 0.000000
vt 1.000000 1.000000
vt 0.000000 1.000000
s 0
f 9/15/7 10/16/7 12/17/7 11/18/7
g Cube.001_Cube.002
v -18.444174 -8.522173 -12.960268
v -18.444174 8.522173 -12.960268
v -18.444174 -8.522173 -14.960268
v -18.444174 8.522173 -14.960268
v 18.444174 -8.522173 -12.960268
v 18.444174 8.522173 -12.960268
v 18.444174 -8.522173 -14.960268
v 18.444174 8.522173 -14.960268
vn -1.0000 -0.0000 -0.0000
vn -0.0000 -0.0000 -1.0000
vn 1.0000 -0.0000 -0.0000
vn -0.0000 -0.0000 1.0000
vn -0.0000 -1.0000 -0.0000
vn -0.0000 1.0000 -0.0000
vt 0.375000 0.000000
vt 0.625000 0.000000
vt 0.625000 0.250000
vt 0.375000 0.250000
vt 0.625000 0.500000
vt 0.375000 0.500000
vt 0.625000 0.750000
vt 0.375000 0.750000
vt 0.625000 1.000000
vt 0.375000 1.000000
vt 0.125000 0.500000
vt 0.125000 0.750000
vt 0.875000 0.500000
vt 0.875000 0.750000
s 0
g Cube.001_Material.001
usemtl Material.001
f 13/19/8 14/20/8 16/21/8 15/22/8
f 15/22/9 16/21/9 20/23/9 19/24/9
f 19/24/10 20/23/10 18/25/10 17/26/10
f 17/26/11 18/25/11 14/27/11 13/28/11
f 15/29/12 19/24/12 17/26/12 13/30/12
f 20/23/13 16/31/13 14/32/13 18/25/13
g Cube.002_Cube.003
v -18.444174 -8.522173 14.805223
v -18.444174 8.522173 14.805223
v -18.444174 -8.522173 12.805223
v -18.444174 8.522173 12.805223
v 18.444174 -8.522173 14.805223
v 18.444174 8.522173 14.805223
v 18.444174 -8.522173 12.805223
v 18.444174 8.522173 12.805223
vn -1.0000 -0.0000 -0.0000
vn -0.0000 -0.0000 -1.0000
vn 1.0000 -0.0000 -0.0000
vn -0.0000 -0.0000 1.0000
vn -0.0000 -1.0000 -0.0000
vn -0.0000 1.0000 -0.0000
vt 0.375000 0.000000
vt 0.625000 0.000000
vt 0.625000 0.250000
vt 0.375000 0.250000
vt 0.625000 0.500000
vt 0.375000 0.500000
vt 0.625000 0.750000
vt 0.375000 0.750000
vt 0.625000 1.000000
vt 0.375000 1.000000
vt 0.125000 0.500000
vt 0.125000 0.750000
vt 0.875000 0.500000
vt 0.875000 0.750000
s 0
g Cube.002_Material.002
usemtl Material.002
f 21/33/14 22/34/14 24/35/14 23/36/14
f 23/36/15 24/35/15 28/37/15 27/38/15
f 27/38/16 28/37/16 26/39/16 25/40/16
f 25/40/17 26/39/17 22/41/17 21/42/17
f 23/43/18 27/38/18 25/40/18 21/44/18
f 28/37/19 24/45/19 22/46/19 26/39/19
g Cube.003_Cube.004
v -16.809696 -8.522173 19.533104
v -16.809696 8.522173 19.533104
v -18.809603 -8.522173 19.513844
v -18.809603 8.522173 19.513844
v -16.454443 -8.522173 -17.353535
v -16.454443 8.522173 -17.353535
v -18.454350 -8.522173 -17.372795
v -18.454350 8.522173 -17.372795
vn -0.0096 -0.0000 1.0000
vn -1.0000 -0.0000 -0.0096
vn 0.0096 -0.0000 -1.0000
vn 1.0000 -0.0000 0.0096
vn -0.0000 -1.0000 -0.0000
vn -0.0000 1.0000 -0.0000
vt 0.375000 0.000000
vt 0.625000 0.000000
vt 0.625000 0.250000
vt 0.375000 0.250000
vt 0.625000 0.500000
vt 0.375000 0.500000
vt 0.625000 0.750000
vt 0.375000 0.750000
vt 0.625000 1.000000
vt 0.375000 1.000000
vt 0.125000 0.500000
vt 0.125000 0.750000
vt 0.875000 0.500000
vt 0.875000 0.750000
s 0
g Cube.003_Material.006
usemtl Material.006
f 29/47/20 30/48/20 32/49/20 31/50/20
f 31/50/21 32/49/21 36/51/21 35/52/21
f 35/52/22 36/51/22 34/53/22 33/54/22
f 33/54/23 34/53/23 30/55/23 29/56/23
f 31/57/24 35/52/24 33/54/24 29/58/24
f 36/51/25 32/59/25 30/60/25 34/53/25
g Cube.004_Cube.005
v 15.938002 -8.522173 19.574230
v 15.938002 8.522173 19.574230
v 13.945265 -8.522173 19.403950
v 13.945265 8.522173 19.403950
v 19.078714 -8.522173 -17.180172
v 19.078714 8.522173 -17.180172
v 17.085978 -8.522173 -17.350452
v 17.085978 8.522173 -17.350452
vn -0.0851 -0.0000 0.9964
vn -0.9964 -0.0000 -0.0851
vn 0.0851 -0.0000 -0.9964
vn 0.9964 -0.0000 0.0851
vn -0.0000 -1.0000 -0.0000
vn -0.0000 1.0000 -0.0000
vt 0.375000 0.000000
vt 0.625000 0.000000
vt 0.625000 0.250000
vt 0.375000 0.250000
vt 0.625000 0.500000
vt 0.375000 0.500000
vt 0.625000 0.750000
vt 0.375000 0.750000
vt 0.625000 1.000000
vt 0.375000 1.000000
vt 0.125000 0.500000
vt 0.125000 0.750000
vt 0.875000 0.500000
vt 0.875000 0.750000
s 0
g Cube.004_Material.003
usemtl Material.003
f 37/61/26 38/62/26 40/63/26 39/64/26
f 39/64/27 40/63/27 44/65/27 43/66/27
f 43/66/28 44/65/28 42/67/28 41/68/28
f 41/68/29 42/67/29 38/69/29 37/70/29
f 39/71/30 43/66/30 41/68/30 37/72/30
f 44/65/31 40/73/31 38/74/31 42/67/31
g Cube.005_Cube.006
v -19.765020 8.156871 27.742023
v -19.765020 10.156871 27.742023
v -19.765020 8.156871 -27.742023
v -19.765020 10.156871 -27.742023
v 19.765020 8.156871 27.742023
v 19.765020 10.156871 27.742023
v 19.765020 8.156871 -27.742023
v 19.765020 10.156871 -27.742023
vn -1.0000 -0.0000 -0.0000
vn -0.0000 -0.0000 -1.0000
vn 1.0000 -0.0000 -0.0000
vn -0.0000 -0.0000 1.0000
vn -0.0000 -1.0000 -0.0000
vn -0.0000 1.0000 -0.0000
vt 0.375000 0.000000
vt 0.625000 0.000000
vt 0.625000 0.250000
vt 0.375000 0.250000
vt 0.625000 0.500000
vt 0.375000 0.500000
vt 0.625000 0.750000
vt 0.375000 0.750000
vt 0.625000 1.000000
vt 0.375000 1.000000
vt 0.125000 0.500000
vt 0.125000 0.750000
vt 0.875000 0.500000
vt 0.875000 0.750000
s 0
g Cube.005_Material.004
usemtl Material.004
f 45/75/32 46/76/32 48/77/32 47/78/32
f 47/78/33 48/77/33 52/79/33 51/80/33
f 51/80/34 52/79/34 50/81/34 49/82/34
f 49/82/35 50/81/35 46/83/35 45/84/35
f 47/85/36 51/80/36 49/82/36 45/86/36
f 52/79/37 48/87/37 46/88/37 50/81/37
